<svg width="16" height="16" viewBox="0 0 16 16" fill="none" xmlns="http://www.w3.org/2000/svg">
<path d="M8 0C3.58875 0 0 3.58887 0 8C0 12.4114 3.58875 16 8 16C12.4113 16 16 12.4114 16 8C16 3.58887 12.4113 0 8 0ZM8 14.0952C4.63916 14.0952 1.90478 11.3611 1.90478 8C1.90478 4.63916 4.63916 1.90478 8 1.90478C11.3608 1.90478 14.0952 4.63916 14.0952 8C14.0952 11.3611 11.3608 14.0952 8 14.0952Z" fill="#272727"/>
<path d="M8.07637 3.61719C7.67606 3.61719 7.35153 3.94166 7.35153 4.34203V7.62353L5.03756 9.9375C4.75441 10.2204 4.75441 10.6794 5.03756 10.9626C5.32062 11.2456 5.77956 11.2456 6.06269 10.9626L8.80128 8.22409V7.48141V4.34203C8.80128 3.94166 8.47675 3.61719 8.07637 3.61719Z" fill="#272727"/>
</svg>
